<?xml version="1.0" encoding="iso-8859-1"?>
<!-- Generator: Adobe Illustrator 17.1.0, SVG Export Plug-In . SVG Version: 6.00 Build 0)  -->
<!DOCTYPE svg PUBLIC "-//W3C//DTD SVG 1.1//EN" "http://www.w3.org/Graphics/SVG/1.1/DTD/svg11.dtd">
<svg version="1.1" id="Capa_1" xmlns="http://www.w3.org/2000/svg" xmlns:xlink="http://www.w3.org/1999/xlink" x="0px" y="0px"
	 viewBox="0 0 407.193 407.193" style="enable-background:new 0 0 407.193 407.193;" xml:space="preserve">
<path d="M63.6,347.455H16v-76.677h18.384c4.418,0,8-3.582,8-8s-3.582-8-8-8H16V206.02h86.04c4.418,0,8-3.582,8-8s-3.582-8-8-8H16
	v-27.063c0-17.592,14.311-31.904,31.9-31.904h51.172c17.59,0,31.899,14.312,31.899,31.904v61.845c0,4.418,3.582,8,8,8s8-3.582,8-8
	v-61.845c0-22.842-16.067-42-37.493-46.765V85.794c0-4.418-3.582-8-8-8H45.493c-4.418,0-8,3.582-8,8v30.399
	C16.067,120.958,0,140.116,0,162.958v192.497c0,4.418,3.582,8,8,8h55.6c4.418,0,8-3.582,8-8S68.018,347.455,63.6,347.455z
	 M53.493,93.794h39.985v21.26H53.493V93.794z M176.865,232.926c-1.489-6.873-2.244-13.966-2.244-21.081
	c0-28.652,5.364-47.137,16.882-58.174c13.196-12.646,31.82-12.956,49.758-12.189c3.321,0.142,6.64,0.33,10.153,0.529
	c4.043,0.229,8.163,0.461,12.339,0.624l-7.019-29.167c-1.033-4.296,1.611-8.616,5.907-9.65c4.286-1.031,8.615,1.61,9.649,5.906
	l7.949,33.039c5.523-0.146,10.96-0.453,16.264-0.753c23.088-1.305,44.892-2.537,59.718,11.474
	c11.65,11.01,17.076,29.554,17.076,58.36c0,6.898-0.713,13.791-2.118,20.486c-0.907,4.323-5.142,7.095-9.473,6.186
	c-4.324-0.907-7.094-5.149-6.186-9.473c1.179-5.617,1.776-11.404,1.776-17.199c0-23.772-3.947-39.058-12.066-46.731
	c-9.814-9.276-26.589-8.328-47.824-7.128c-7.475,0.422-15.202,0.859-23.282,0.865c-0.115,0.002-0.231,0.002-0.347,0
	c-8.074-0.007-15.797-0.443-23.268-0.866c-3.457-0.196-6.723-0.38-9.933-0.518c-17.677-0.756-30.202,0.28-38.006,7.757
	c-8.042,7.706-11.951,22.956-11.951,46.621c0,5.979,0.633,11.932,1.881,17.694c0.936,4.318-1.807,8.577-6.125,9.512
	c-0.57,0.124-1.14,0.183-1.701,0.183C180.991,239.234,177.677,236.674,176.865,232.926z M303.78,125.94
	c0.843,0.03,1.681,0.045,2.521,0.045c19.005,0,37.438-7.598,50.908-21.067c14.063-14.065,21.725-33.538,21.018-53.427
	c-0.149-4.196-3.517-7.563-7.713-7.711c-19.88-0.699-39.363,6.96-53.419,21.022c-14.064,14.058-21.729,33.531-21.027,53.425
	C296.217,122.424,299.584,125.792,303.78,125.94z M328.409,76.116c9.038-9.042,20.955-14.681,33.557-16.053
	c-1.324,12.659-6.883,24.354-16.069,33.542c-9.193,9.193-20.897,14.754-33.566,16.075C313.653,97.009,319.215,85.306,328.409,76.116
	z M122.295,324.09c0-4.418,3.582-8,8-8h42.232c4.418,0,8,3.582,8,8s-3.582,8-8,8h-42.232
	C125.877,332.09,122.295,328.508,122.295,324.09z M399.193,254.494H68.717c-4.418,0-8,3.582-8,8s3.582,8,8,8h17.795v55.187
	c0,20.83,16.946,37.776,37.776,37.776H343.62c20.829,0,37.774-16.946,37.774-37.776v-55.187h17.799c4.418,0,8-3.582,8-8
	S403.611,254.494,399.193,254.494z M365.395,325.681c0,12.007-9.768,21.776-21.774,21.776H124.288
	c-12.008,0-21.776-9.769-21.776-21.776v-55.187h262.883V325.681z M224.839,324.09c0,4.418-3.582,8-8,8h-1.329c-4.418,0-8-3.582-8-8
	s3.582-8,8-8h1.329C221.257,316.09,224.839,319.672,224.839,324.09z M122.295,294.864c0-4.418,3.582-8,8-8h86.544
	c4.418,0,8,3.582,8,8s-3.582,8-8,8h-86.544C125.877,302.864,122.295,299.282,122.295,294.864z M321.659,294.864c0-4.418,3.582-8,8-8
	h1.326c4.418,0,8,3.582,8,8s-3.582,8-8,8h-1.326C325.241,302.864,321.659,299.282,321.659,294.864z"/>
<g>
</g>
<g>
</g>
<g>
</g>
<g>
</g>
<g>
</g>
<g>
</g>
<g>
</g>
<g>
</g>
<g>
</g>
<g>
</g>
<g>
</g>
<g>
</g>
<g>
</g>
<g>
</g>
<g>
</g>
</svg>
