<?xml version="1.0" encoding="iso-8859-1"?>
<!-- Generator: Adobe Illustrator 18.0.0, SVG Export Plug-In . SVG Version: 6.00 Build 0)  -->
<!DOCTYPE svg PUBLIC "-//W3C//DTD SVG 1.1//EN" "http://www.w3.org/Graphics/SVG/1.1/DTD/svg11.dtd">
<svg version="1.1" id="Capa_1" xmlns="http://www.w3.org/2000/svg" xmlns:xlink="http://www.w3.org/1999/xlink" x="0px" y="0px"
	 viewBox="0 0 449.334 449.334" style="enable-background:new 0 0 449.334 449.334;" xml:space="preserve">
<g>
	<path d="M441.582,299.055l-71.773-93.309c-37.589-48.868-91.68-81.944-152.306-93.137l-81.431-15.034
		c-13.283-2.452-26.047-7.991-36.912-16.017L84.628,70.824c-3.771-2.786-8.225-4.258-12.881-4.258
		c-8.688,0-16.528,5.143-19.975,13.103c-6.972,16.105-19.804,28.517-36.132,34.949l-1.875,0.739
		c-8.271,3.259-13.544,10.804-13.759,19.693c-0.216,8.889,4.686,16.681,12.791,20.336c8.885,4.006,16.473,10.389,21.942,18.458
		l3.07,4.529c0.939,4.064,6.843,27.883,22.414,57.343c15.482,29.292,43.848,69.757,91.059,96.182
		c46.874,26.235,103.574,37.052,142.887,41.507c27.017,3.062,49.39,3.64,62.437,3.64c5.926,0,9.919-0.119,11.558-0.179l16.623,4.561
		c3.244,0.89,6.591,1.342,9.947,1.342c0.001,0,0.001,0,0.002,0c11.911,0,23.237-5.731,30.294-15.332l17.045-23.188
		C451.935,330.835,451.731,312.251,441.582,299.055z M156.167,323.171c-44.973-25.171-72.108-63.84-86.954-91.848
		c-4.13-7.791-7.562-15.21-10.389-21.95l17.171,25.331c33.293,49.115,83.141,84.81,140.361,100.509l113.015,31.008
		C285.448,363.869,212.927,354.94,156.167,323.171z M70.666,133.771c-0.03-0.196-2.356-15.375-2.973-28.386
		c13.659,14.147,25.396,38.054,25.536,38.339c0.713,1.465,2.097,2.491,3.705,2.749c0.136,0.022,4.016,0.656,10.808,2.052
		c-8.995,6.698-14.115,16.071-14.425,16.649c-0.627,1.17-0.763,2.542-0.378,3.813c0.386,1.271,1.261,2.336,2.433,2.96l15,8
		c0.742,0.396,1.55,0.588,2.35,0.588c1.354,0,2.689-0.549,3.66-1.59c4.865-5.216,18.961-18.794,27.925-21.566
		c1.076,0.297,2.166,0.6,3.269,0.91c-12.407,8.404-20.604,20.844-21.044,21.521c-1.238,1.906-1.086,4.506,0.685,6.304
		c0.413,0.419,0.919,0.739,1.456,0.98l20,9c0.665,0.299,1.361,0.441,2.049,0.441c1.796,0,3.522-0.971,4.417-2.652
		c0.097-0.183,9.689-17.852,28.467-24.205c-13.036,13.941-19.572,31.235-19.876,32.053c-0.861,2.316,0.099,4.913,2.259,6.113l18,10
		c0.767,0.426,1.601,0.63,2.423,0.63c1.666,0,3.29-0.833,4.236-2.337c4.695-7.457,19.136-27.909,29.297-32.669
		c0.308,0.438,0.235,0.334,0.543,0.771c-14.606,14.261-21.913,33.572-22.245,34.465c-0.861,2.316,0.099,4.914,2.259,6.114l18,10
		c0.767,0.427,1.601,0.63,2.423,0.63c1.666,0,3.289-0.833,4.236-2.337c4.682-7.435,19.944-27.946,30.096-32.78
		c4.212,2.155,8.451,4.375,12.692,6.651c-0.449-0.202-0.901-0.402-1.367-0.578c-2.745-1.042-5.563-1.569-8.376-1.569
		c-7.441,0-13.453,3.659-15.688,9.549c-1.592,4.192-0.97,9.021,1.706,13.246c2.428,3.833,6.335,6.92,11.003,8.692
		c2.744,1.042,5.562,1.57,8.376,1.57c7.44,0,13.452-3.659,15.688-9.549c1.592-4.193,0.97-9.021-1.706-13.246
		c-1.61-2.543-3.882-4.746-6.585-6.466c7.298,3.962,14.586,8.077,21.737,12.285c-12.206,8.988-26.852,26.058-28.826,28.384
		c-1.442,1.699-1.634,4.225-0.225,6.198c0.475,0.665,1.137,1.177,1.868,1.543l23.932,11.966c0.715,0.357,1.478,0.528,2.23,0.527
		c1.682,0,3.316-0.851,4.257-2.368c0.114-0.184,11.077-17.637,27.364-27.059c16.891,11.348,31.588,22.701,41.849,32.962
		c7.312,7.313,10.86,12.603,12.509,16.292c-3.003-3.849-6.348-6.372-7.033-6.871c-2.231-1.624-5.359-1.131-6.984,1.103
		c-1.624,2.233-1.13,5.36,1.104,6.984c1.465,1.065,6.057,5.132,7.535,9.318c-6.866,1.802-14.437,2.726-22.584,2.726
		c-0.002,0-0.005,0-0.006,0c-36.599-0.002-81.166-18.017-119.935-35.639c-23.796-10.816-52.47-28.661-78.677-47
		c8.785,4.737,18.169,9.724,27.898,14.788c64.874,33.77,113.385,54.727,144.185,62.287c0.4,0.098,0.802,0.145,1.196,0.145
		c2.249,0,4.292-1.528,4.852-3.809c0.658-2.682-0.981-5.39-3.664-6.048c-66.046-16.211-203.727-94.65-226.553-107.81
		c-1.967-1.134-3.822-2.454-5.536-3.944c-6.516-5.666-11.658-10.53-14.961-14.182c-0.838-0.926-1.995-1.511-3.239-1.623
		c-17.383-1.574-31.751-12.63-41.117-24.512c18.321,1.268,30.238,4.088,30.375,4.121c1.618,0.391,3.33-0.051,4.558-1.181
		C70.337,137.085,70.921,135.419,70.666,133.771z M314.162,234.078c-11.598,7.855-20.099,18.434-24.116,24.028l-14.321-7.161
		c13.062-14.704,22.22-21.738,26.531-24.323C306.296,229.09,310.274,231.579,314.162,234.078z M285.534,205.101
		c1.295-1.136,2.339-2.5,3.072-4.062c3.726-7.987-1.746-18.161-12.45-23.162c-4.776-2.237-9.925-3.09-14.507-2.395
		c-5.24,0.793-9.345,3.597-11.259,7.685c-0.447,0.95-0.76,1.938-0.954,2.95c-6.749-3.294-13.474-6.431-20.105-9.367
		c0.345-0.507,0.66-1.036,0.923-1.598c1.807-3.867,1.361-8.523-1.222-12.775c-2.231-3.673-5.897-6.834-10.319-8.9
		c-9.973-4.667-20.53-2.458-24.032,5.019c-0.603,1.281-0.953,2.633-1.072,4.02c-29.035-10.431-54.649-17.189-71.96-21.178
		c18.031-3.535,40.424-3.925,64.252-0.941c32.274,4.041,63.751,13.697,86.359,26.491c41.747,23.631,71.023,60.328,81.047,82.576
		C335.109,235.15,311.121,219.525,285.534,205.101z M230.767,188.423c4.485,2.062,9.064,4.236,13.705,6.508
		c-10.178,7.632-20.413,21.813-25.18,28.887l-9.999-5.555C212.365,211.554,219.625,197.733,230.767,188.423z M169.95,165.024
		c-10.712,6.337-17.726,15.101-21.161,20.157l-10.343-4.654c4.503-5.579,12.908-14.536,22.828-18.22
		C164.106,163.172,166.999,164.076,169.95,165.024z M203.733,162.745c0.8-1.711,5.494-2.667,10.745-0.21
		c2.618,1.223,4.808,3.058,6.008,5.034c0.805,1.324,1.069,2.577,0.71,3.346c-0.291,0.621-1.06,1.121-2.137,1.416
		c-2.862-1.193-5.699-2.344-8.504-3.448c-1.923-0.757-3.833-1.493-5.734-2.219C203.746,165.151,203.305,163.655,203.733,162.745z
		 M194.109,173.33c4.199,1.542,14,5.34,14.611,5.584c-9.762,7.812-19.368,21.142-23.942,27.931l-9.999-5.555
		C177.647,195.019,184.174,182.536,194.109,173.33z M260.228,191.507c-0.947-1.578-1.256-3.09-0.784-4.092
		c0.676-1.442,2.814-1.911,3.702-2.045c2.61-0.395,5.804,0.174,8.773,1.565c6.131,2.864,8.611,7.762,7.629,9.867
		c-0.602,1.286-2.596,2.108-5.122,2.168C269.717,196.426,264.977,193.934,260.228,191.507z M123.632,152.063
		c2.076,0.495,4.252,1.026,6.523,1.594c-7.493,5.096-14.601,11.859-18.407,15.691l-6.854-3.656
		C108.429,160.872,115.129,153.473,123.632,152.063z M269.941,224.794c-0.714,1.882-3.202,3.098-6.339,3.098
		c-1.574,0-3.243-0.318-4.827-0.919c-2.619-0.994-4.844-2.705-6.104-4.693c-0.573-0.905-1.44-2.674-0.805-4.347
		c0.714-1.882,3.202-3.098,6.339-3.098c1.574,0,3.243,0.318,4.827,0.919c2.619,0.994,4.844,2.705,6.104,4.693
		C269.71,221.352,270.577,223.121,269.941,224.794z M252.931,334.879l-33.929-9.309c-52.346-14.362-98.253-46.167-130.113-89.931
		c-1.765-3.195-19.316-35.991-12.177-61.803c4.881,4.712,11.311,10.394,18.885,16.678c-1.695,1.209-3.037,2.776-3.906,4.643
		c-1.399,2.974-1.487,6.346-0.255,9.75c1.782,4.922,6.081,9.273,11.788,11.936c3.461,1.621,7.063,2.447,10.461,2.446
		c2.201,0,4.315-0.346,6.249-1.047c2.437-0.884,4.418-2.283,5.865-4.098c31.092,23.099,69.008,47.92,99.857,61.942
		c37.901,17.228,81.323,34.809,118.663,36.405C328.597,329.277,297.936,336.804,252.931,334.879z M100.747,199.397
		c0.425-0.911,1.867-1.53,3.715-1.668c4.207,3.36,8.666,6.838,13.319,10.384c-0.368,0.342-0.85,0.582-1.256,0.729
		c-1.858,0.673-5.213,0.749-9.066-1.057c-3.855-1.799-5.948-4.424-6.62-6.281C100.624,200.91,100.433,200.065,100.747,199.397z
		 M434.018,338.326l-17.045,23.188c-5.182,7.047-13.495,11.255-22.239,11.254c-2.462,0-4.918-0.332-7.301-0.985l-100.193-27.49
		c34.281-2.998,57.721-13.682,69.908-31.917c7.929-0.521,15.341-1.881,22.083-4.073c0.092-0.029,0.192-0.067,0.288-0.101
		c0.004-0.002,0.008-0.003,0.012-0.004c2.823-0.995,7.615-4.1,9.063-10.023c2.094-8.566-3.249-19.09-16.334-32.175
		c-1.627-1.627-3.381-3.293-5.24-4.99c-2.052-22.733-37.071-72.96-89.832-102.825c-50.63-28.652-132.291-38.429-176.239-21.356
		c-4.372-8.464-19.256-35.621-35.469-46.43c-1.482-0.988-3.376-1.112-4.974-0.33c-1.599,0.784-2.66,2.358-2.787,4.133
		c-0.709,9.924,0.936,25.179,2.081,34.056c-7.262-1.272-19.669-3.006-35.313-3.471c-1.85-0.056-3.53,0.889-4.457,2.46
		c-0.925,1.571-0.922,3.522,0.01,5.09c11.438,19.265,28.945,32.49,47.764,36.417c-3.682,11.126-3.323,23.165-1.276,34.164
		l-23.51-34.684c-6.508-9.601-15.536-17.196-26.108-21.964c-5.23-2.358-6.996-7.217-6.905-10.978
		c0.091-3.761,2.09-8.528,7.428-10.631l1.875-0.739c18.818-7.413,33.607-21.718,41.644-40.28c1.86-4.298,6.099-7.076,10.797-7.076
		c2.502,0,4.901,0.796,6.939,2.301l14.532,10.734c12.079,8.923,26.271,15.081,41.038,17.808l81.431,15.034
		c58.193,10.743,110.113,42.493,146.195,89.399l71.773,93.309C441.105,314.838,441.255,328.48,434.018,338.326z"/>
	<path d="M344.725,294.001c7.426,0,13.467-6.041,13.467-13.466s-6.041-13.466-13.467-13.466c-7.425,0-13.466,6.041-13.466,13.466
		S337.3,294.001,344.725,294.001z M344.725,277.068c1.911,0,3.467,1.555,3.467,3.466s-1.556,3.466-3.467,3.466
		s-3.466-1.555-3.466-3.466S342.813,277.068,344.725,277.068z"/>
	<path d="M132.932,236.002c-3.402-1.592-7.026-2.433-10.48-2.433c-6.302,0-11.371,2.793-13.56,7.471
		c-1.809,3.866-1.364,8.523,1.219,12.776c2.23,3.673,5.896,6.836,10.323,8.907c3.402,1.591,7.026,2.433,10.48,2.433
		c6.303,0,11.371-2.793,13.559-7.471c1.81-3.866,1.365-8.523-1.218-12.776C141.023,241.234,137.357,238.071,132.932,236.002z
		 M135.415,253.447c-0.478,1.022-2.287,1.708-4.501,1.708c-2,0-4.159-0.516-6.244-1.491c-2.62-1.226-4.812-3.063-6.013-5.04
		c-0.804-1.324-1.068-2.576-0.707-3.348c0.478-1.021,2.286-1.708,4.501-1.708c2,0,4.158,0.516,6.244,1.491
		c2.62,1.226,4.812,3.062,6.013,5.039C135.512,251.423,135.776,252.674,135.415,253.447z"/>
	<path d="M185.856,271.999c3.504-7.492-1.565-17.016-11.542-21.682c-3.402-1.591-7.027-2.433-10.481-2.433
		c-6.302,0-11.371,2.793-13.56,7.472c-3.504,7.492,1.565,17.016,11.542,21.683c3.402,1.591,7.027,2.432,10.48,2.432
		C178.599,279.471,183.668,276.678,185.856,271.999z M176.798,267.763c-0.478,1.021-2.287,1.708-4.502,1.708
		c-1.999,0-4.159-0.515-6.243-1.49c-5.25-2.456-7.522-6.675-6.721-8.388c0.478-1.021,2.287-1.708,4.501-1.708
		c2,0,4.159,0.516,6.245,1.491C175.327,261.831,177.6,266.05,176.798,267.763z"/>
	<path d="M201.105,283.114c-3.402-1.591-7.026-2.433-10.48-2.433c-6.303,0-11.371,2.793-13.56,7.472
		c-3.504,7.492,1.565,17.016,11.542,21.682c3.402,1.592,7.026,2.433,10.48,2.433c6.302,0,11.371-2.793,13.561-7.472
		C216.151,297.305,211.081,287.781,201.105,283.114z M203.59,300.56c-0.479,1.022-2.288,1.709-4.503,1.709
		c-2,0-4.158-0.516-6.244-1.491c-5.249-2.455-7.521-6.674-6.72-8.387c0.478-1.022,2.287-1.708,4.501-1.708
		c2,0,4.159,0.516,6.244,1.491C202.118,294.628,204.391,298.848,203.59,300.56z"/>
	<path d="M244.541,285.287c-3.699-1.731-7.637-2.646-11.387-2.646c-6.769,0-12.203,2.979-14.537,7.969
		c-3.755,8.028,1.749,18.267,12.53,23.31c3.7,1.73,7.637,2.645,11.386,2.645c6.77,0,12.204-2.979,14.538-7.969
		C260.826,300.568,255.322,290.329,244.541,285.287z M248.013,304.359c-0.626,1.34-2.777,2.206-5.479,2.206
		c-2.295,0-4.767-0.589-7.149-1.703c-5.727-2.679-8.846-7.583-7.708-10.016c0.626-1.34,2.777-2.205,5.479-2.205
		c2.295,0,4.768,0.589,7.15,1.703C246.031,297.023,249.15,301.928,248.013,304.359z"/>
	<path d="M285.969,303.241c-2.475-1.158-5.193-1.77-7.862-1.77c-6.405,0-11.955,3.359-14.484,8.767
		c-3.692,7.894,0.324,17.6,8.954,21.637c2.475,1.157,5.193,1.769,7.862,1.769c6.405,0,11.955-3.359,14.484-8.766
		C298.615,316.984,294.599,307.278,285.969,303.241z M285.864,320.641c-0.866,1.853-2.945,3.003-5.426,3.003
		c-1.215,0-2.469-0.286-3.626-0.827c-3.635-1.701-5.488-5.443-4.132-8.343c0.866-1.852,2.945-3.003,5.426-3.003
		c1.214,0,2.468,0.286,3.626,0.828C285.367,314,287.221,317.742,285.864,320.641z"/>
</g>
<g>
</g>
<g>
</g>
<g>
</g>
<g>
</g>
<g>
</g>
<g>
</g>
<g>
</g>
<g>
</g>
<g>
</g>
<g>
</g>
<g>
</g>
<g>
</g>
<g>
</g>
<g>
</g>
<g>
</g>
</svg>
