<?xml version="1.0" encoding="iso-8859-1"?>
<!-- Generator: Adobe Illustrator 19.0.0, SVG Export Plug-In . SVG Version: 6.00 Build 0)  -->
<svg version="1.1" id="Layer_1" xmlns="http://www.w3.org/2000/svg" xmlns:xlink="http://www.w3.org/1999/xlink" x="0px" y="0px"
	 viewBox="0 0 197.079 197.079" style="enable-background:new 0 0 197.079 197.079;" xml:space="preserve">
<g>
	<g>
		<path d="M196.58,115.766c-0.246-0.415-0.57-0.752-0.93-1.03c-0.221-0.65-0.554-1.255-1.098-1.7
			c-0.859-0.702-1.997-0.991-3.076-0.76c-0.229,0.038-22.586,4.352-48.739-9.622c-4.94-2.64-9.672-7.057-14.259-12.436l-0.194-0.485
			l-0.168,0.067c-4.205-4.985-8.287-10.773-12.297-16.744l-2.538-5.583l-0.902,0.409c-0.568-0.862-1.136-1.725-1.702-2.585
			c-13.721-20.865-26.68-40.573-44.081-40.573c-18.354,0-54.347,25.458-64.046,56.827c-5.535,17.901-4.754,44.285,30.4,68.32
			c24.571,16.799,50.085,22.484,73.382,22.484c48.476,0,87.321-24.63,87.893-25c1.052-0.682,1.687-1.849,1.687-3.102v-23.988
			C197.119,119.103,197.472,117.271,196.58,115.766z M66.596,32.115c8.998,0,17.561,8.532,25.858,19.666l-56.123,26.19l3.125,6.697
			L96.83,57.894c2.579,3.731,5.136,7.607,7.673,11.465c0.354,0.539,0.711,1.08,1.066,1.62l-39.66,18.027l3.058,6.728l40.743-18.52
			c3.634,5.411,7.344,10.699,11.206,15.467l-36.441,14.576l2.744,6.861l38.849-15.539c4.172,4.418,8.538,8.107,13.189,10.592
			c1.029,0.55,2.046,1.05,3.063,1.549l-27.964,6.992l1.794,7.17l36.729-9.183l-0.147-0.589c10.666,3.778,20.121,5.006,27.183,5.219
			C150.607,133.457,72.12,158.205,9.819,83.549c-0.031-0.037-0.077-0.052-0.109-0.088C19.054,53.784,52.596,32.115,66.596,32.115z
			 M188.522,142.174c-11.995,7.038-85.556,46.621-151.401,1.597C15.495,128.985,5.495,111.365,7.764,92.389
			c33.922,38.283,72.484,49.453,105.799,49.453c33.983,0,62.478-11.537,74.959-17.515V142.174z"/>
	</g>
</g>
<g>
</g>
<g>
</g>
<g>
</g>
<g>
</g>
<g>
</g>
<g>
</g>
<g>
</g>
<g>
</g>
<g>
</g>
<g>
</g>
<g>
</g>
<g>
</g>
<g>
</g>
<g>
</g>
<g>
</g>
</svg>
